<svg xmlns="http://www.w3.org/2000/svg" width="77.803" height="81.339" viewBox="0 0 77.803 81.339">
  <path id="icons8_coin_wallet" d="M41.133,3A15.934,15.934,0,0,0,25.219,18.914a15.354,15.354,0,0,0,.18,1.768h7.073a8.841,8.841,0,1,1,17.323,0h7.073a15.353,15.353,0,0,0,.18-1.768,15.732,15.732,0,0,0-.567-3.979,7.058,7.058,0,0,1,11.176,5.747H74.73A14.072,14.072,0,0,0,53.207,8.671,15.816,15.816,0,0,0,41.133,3ZM14.609,13.609A10.664,10.664,0,0,0,4,24.219V73.73A10.609,10.609,0,0,0,14.609,84.339H74.73A7.071,7.071,0,0,0,81.8,77.266V34.828a7.071,7.071,0,0,0-7.073-7.073H14.609a3.536,3.536,0,1,1,0-7.073h3.536V13.609ZM67.657,48.974a7.073,7.073,0,1,1-7.073,7.073A7.071,7.071,0,0,1,67.657,48.974Z" transform="translate(-4 -3)" fill="#fff"/>
</svg>
