<svg xmlns="http://www.w3.org/2000/svg" width="84.379" height="64.907" viewBox="0 0 84.379 64.907">
  <path id="icons8_engine_1" d="M35.7,2a3.2,3.2,0,0,0-2.84,3.245V8.491A3.2,3.2,0,0,0,36,11.736H42.19v3.245h9.736V11.736h6.491a3.2,3.2,0,0,0,3.245-3.245V5.246A3.2,3.2,0,0,0,58.416,2H35.7ZM32.453,18.227c-.647,0-1.28.685-1.927,1.014L21.7,27.963H16.227c-.976,0-1.255.368-2.231,1.014a2.144,2.144,0,0,0-1.014,2.231V37.7H9.736V31.513a3.249,3.249,0,0,0-3.245-3.245H3.245C1.952,27.938,0,29.243,0,31.513V54.23a3.249,3.249,0,0,0,3.245,3.245H6.491A3.249,3.249,0,0,0,9.736,54.23V47.739h3.245V54.23a3.249,3.249,0,0,0,3.245,3.245H21.4l9.128,8.417a2.843,2.843,0,0,0,1.927,1.014H55.171A2.9,2.9,0,0,0,57.4,65.893L70.383,52.912A2.842,2.842,0,0,0,71.4,50.985V47.739h3.245v6.186a3.249,3.249,0,0,0,3.245,3.245h3.245a3.249,3.249,0,0,0,3.245-3.245V31.208a3.5,3.5,0,0,0-2.941-3.245H78.193a3.249,3.249,0,0,0-3.245,3.245V37.7H71.7V21.472a3.249,3.249,0,0,0-3.245-3.245Zm12.373,10.04h7.708L44.826,41.249h7.4v-.3h.3l-.3.3-14.6,18.864L43.2,44.8h-6.9Z" transform="translate(0 -2)" fill="#fff"/>
</svg>
