<svg xmlns="http://www.w3.org/2000/svg" width="88.491" height="88.092" viewBox="0 0 88.491 88.092">
  <path id="icons8_report_card" d="M2.766,2A3.9,3.9,0,0,0,0,6V86.087c0,2.206,1.529,4,3.4,4H85.088c1.875,0,3.4-1.8,3.4-4V6c0-2.205-1.529-4-3.4-4H2.766Zm4.042,8.008H81.684V82.083H6.807Zm64.56,8.259a2.98,2.98,0,0,0-.532.125,3.467,3.467,0,0,0-2.127,1.752l-2.765,4.63-1.6-1.5a3.086,3.086,0,0,0-4.786.751,4.5,4.5,0,0,0,.638,5.631l4.467,4a2.99,2.99,0,0,0,2.553.735,3.331,3.331,0,0,0,2.234-1.611l4.786-8.008a4.553,4.553,0,0,0,.372-4.348A3.332,3.332,0,0,0,71.368,18.267Zm-54.35,3.754v8.008H51.053V22.021Zm54.35,16.267a2.949,2.949,0,0,0-.532.125,3.466,3.466,0,0,0-2.127,1.752l-2.765,4.63-1.6-1.5a3.086,3.086,0,0,0-4.786.751,4.5,4.5,0,0,0,.638,5.631l4.467,4a2.991,2.991,0,0,0,2.553.735A3.33,3.33,0,0,0,69.453,52.8l4.786-8.008a4.553,4.553,0,0,0,.372-4.348A3.332,3.332,0,0,0,71.368,38.288Zm-54.35,3.754V50.05H51.053V42.042Zm54.35,16.267a2.95,2.95,0,0,0-.532.125,3.466,3.466,0,0,0-2.127,1.752l-2.765,4.63-1.6-1.5a3.086,3.086,0,0,0-4.786.751A4.5,4.5,0,0,0,60.2,69.7l4.467,4a2.991,2.991,0,0,0,2.553.735,3.33,3.33,0,0,0,2.234-1.611l4.786-8.008a4.553,4.553,0,0,0,.372-4.348A3.332,3.332,0,0,0,71.368,58.309Zm-54.35,3.754v8.008H51.053V62.062Z" transform="translate(0 -2)" fill="#fff"/>
</svg>
