<svg xmlns="http://www.w3.org/2000/svg" width="98.314" height="71.136" viewBox="0 0 98.314 71.136">
  <path id="icons8_in_transit" d="M0,4V7.781H30.25v3.781H7.563v3.781H0v3.781H26.469v3.781H7.563v3.781H0v3.781H22.688V34.25H7.563v3.781H0v3.781H18.906v3.781H7.563V60.72A3.566,3.566,0,0,0,11.344,64.5h3.781A13.438,13.438,0,0,1,28.36,52.8,13.121,13.121,0,0,1,41.594,64.5H52.938a3.566,3.566,0,0,0,3.781-3.781V7.781A3.566,3.566,0,0,0,52.938,4ZM64.282,19.125A3.566,3.566,0,0,0,60.5,22.907V60.72A3.785,3.785,0,0,0,64.282,64.5,13.438,13.438,0,0,1,77.517,52.8,13.121,13.121,0,0,1,90.751,64.5h3.781a3.566,3.566,0,0,0,3.781-3.781V41.813c0-3.4-3.072-7.563-3.072-7.563L86.97,22.907c-1.891-2.275-3.028-3.781-5.672-3.781Zm7.563,7.563h9.1a2.815,2.815,0,0,1,1.536.709L90.4,38.386c.753,1.137,1.536,2.319,1.536,3.072H71.845ZM28.36,57.647A8.744,8.744,0,1,0,37.1,66.391,8.782,8.782,0,0,0,28.36,57.647Zm49.157,0a8.744,8.744,0,1,0,8.744,8.744A8.782,8.782,0,0,0,77.517,57.647Z" transform="translate(0 -4)" fill="#fff"/>
</svg>
