<svg xmlns="http://www.w3.org/2000/svg" width="77.553" height="77.203" viewBox="0 0 77.553 77.203">
  <path id="icons8_contract" d="M16.572,4C9.089,4,3,9.376,3,15.982v3.423a1.839,1.839,0,0,0,1.939,1.712h50.41a1.835,1.835,0,0,0,1.939-1.712V14.27A11.779,11.779,0,0,1,63.892,4ZM70.859,5.712c-5.354,0-9.694,3.831-9.694,8.559v5.135c0,2.828-2.613,5.135-5.816,5.135H14.633V74.182a1.835,1.835,0,0,0,1.939,1.712H45.654v3.584a1.69,1.69,0,0,0,1.06,1.538,2.145,2.145,0,0,0,2.03-.147l6.6-4.386,6.6,4.386a2.145,2.145,0,0,0,2.03.147,1.69,1.69,0,0,0,1.06-1.538V75.893H78.615a1.83,1.83,0,0,0,1.939-1.712V14.27C80.553,9.543,76.214,5.712,70.859,5.712ZM28.2,29.676H66.982V33.1H28.2Zm0,10.27H66.982V43.37H28.2Zm27.144,8.88a2.742,2.742,0,0,1,2.727,1.712c.2.174.174.214.364.214a3.308,3.308,0,0,1,3.332.161,2.161,2.161,0,0,1,.727,2.728c0,.174.242.154.242.321a2.742,2.742,0,0,1,2.3,2.086,2.43,2.43,0,0,1-1.333,2.568V59.1a2.423,2.423,0,0,1,.182,2.782,3.034,3.034,0,0,1-2.484,1.23,2.929,2.929,0,0,1-.424-.054c0,.174-.235.154-.424.321a2.213,2.213,0,0,1-1.7,2.247,1.907,1.907,0,0,1-.969.161,3.441,3.441,0,0,1-2.181-.856h-.727a3.307,3.307,0,0,1-2.181.8,3.454,3.454,0,0,1-.969-.107,2.445,2.445,0,0,1-1.7-2.247c0-.174-.227-.154-.424-.321a3.075,3.075,0,0,1-.424.054,3.033,3.033,0,0,1-2.484-1.23,2.158,2.158,0,0,1,.182-2.782v-.481a2.43,2.43,0,0,1-1.333-2.568,2.734,2.734,0,0,1,2.3-2.086c0-.174.242-.154.242-.321a2.163,2.163,0,0,1,.727-2.728,3.308,3.308,0,0,1,3.332-.161c.2-.174.174-.214.364-.214A2.924,2.924,0,0,1,55.349,48.826ZM49.532,68.4a6.652,6.652,0,0,0,.909.375c.068.027.113.087.182.107a7.7,7.7,0,0,0,2.181.267,7.432,7.432,0,0,0,2.484-.428,7.587,7.587,0,0,0,2.605.482,6.063,6.063,0,0,0,2.424-.428,6.993,6.993,0,0,0,.848-.321v7.649L56.5,73a2.14,2.14,0,0,0-2.3,0l-4.665,3.1Z" transform="translate(-3 -4)" fill="#fff"/>
</svg>
