<svg xmlns="http://www.w3.org/2000/svg" width="93.605" height="93.609" viewBox="0 0 93.605 93.609">
  <path id="tools-solid" d="M91.566,72.338,70.159,50.931A13.574,13.574,0,0,0,54.547,48.39L35.059,28.9V17.55L11.659,0-.041,11.7l17.55,23.4H28.862L48.349,54.587A13.6,13.6,0,0,0,50.89,70.2L72.3,91.607a6.8,6.8,0,0,0,9.634,0l9.634-9.634A6.83,6.83,0,0,0,91.566,72.338ZM60.6,41.133A19.234,19.234,0,0,1,74.29,46.8l3.547,3.547a25.877,25.877,0,0,0,8.007-5.393,26.291,26.291,0,0,0,6.929-24.99A2.188,2.188,0,0,0,89.1,18.958l-13.6,13.6L63.084,30.493,61.018,18.08l13.6-13.6A2.207,2.207,0,0,0,73.577.786,26.334,26.334,0,0,0,48.605,7.715a25.907,25.907,0,0,0-7.532,18.939L56.082,41.663A19.915,19.915,0,0,1,60.6,41.133ZM41.6,56.123,31.238,45.758,3.378,73.636A11.7,11.7,0,0,0,19.922,90.181l22.6-22.6A19.631,19.631,0,0,1,41.6,56.123ZM11.659,86.287A4.387,4.387,0,1,1,16.047,81.9,4.4,4.4,0,0,1,11.659,86.287Z" transform="translate(0.05)" fill="#fff"/>
</svg>
