<svg width="71" height="71" viewBox="0 0 71 71" fill="none" xmlns="http://www.w3.org/2000/svg">
<path d="M35.4999 0C17.5304 0 2.95825 13.2432 2.95825 29.5833C2.95825 45.9235 17.5304 59.1667 35.4999 59.1667V71C35.4999 71 68.0416 55.1452 68.0416 29.5833C68.0416 13.2432 53.4695 0 35.4999 0ZM39.1169 44.7448H31.8829V24.1405H39.1169V44.7448ZM35.5115 18.3394C31.594 18.3394 31.5709 15.4504 31.5709 14.7801C31.5709 14.0983 31.5709 11.244 35.5115 11.244C39.4636 11.244 39.4521 14.0983 39.4521 14.7801C39.4521 15.4504 39.429 18.3394 35.5115 18.3394Z" fill="black"/>
</svg>
