<svg xmlns="http://www.w3.org/2000/svg" width="75.94" height="75.483" viewBox="0 0 75.94 75.483">
  <path id="icons8_automation" d="M54.811,2l-.545,4.666a14.979,14.979,0,0,0-4.9,2.838L45.052,7.639l-4.386,7.592L44.4,18a15.144,15.144,0,0,0-.295,2.867,15.144,15.144,0,0,0,.295,2.867l-3.73,2.772L45.052,34.1l4.312-1.865a14.979,14.979,0,0,0,4.9,2.838l.545,4.666h8.772l.545-4.666a14.978,14.978,0,0,0,4.9-2.838L73.343,34.1l4.386-7.593L74,23.738a15.144,15.144,0,0,0,.295-2.867A15.144,15.144,0,0,0,74,18l3.73-2.772L73.343,7.639,69.031,9.5a14.979,14.979,0,0,0-4.9-2.838L63.583,2ZM59.2,14.266a6.6,6.6,0,1,1-6.6,6.6A6.607,6.607,0,0,1,59.2,14.266ZM20.844,28.419l-.752,6.457a18.813,18.813,0,0,0-8.005,4.563L6.175,36.888,1.789,44.481l5.2,3.862a17.058,17.058,0,0,0,0,9.214l-5.2,3.862,4.386,7.593,5.912-2.551a18.809,18.809,0,0,0,8.005,4.563l.752,6.457h8.772l.752-6.457a18.807,18.807,0,0,0,8.005-4.563l5.912,2.551,4.386-7.593-5.2-3.862a17.055,17.055,0,0,0,0-9.214l5.2-3.862-4.386-7.593-5.912,2.551a18.811,18.811,0,0,0-8.005-4.563l-.752-6.457ZM25.23,45.4a7.548,7.548,0,1,1-7.548,7.548A7.546,7.546,0,0,1,25.23,45.4Z" transform="translate(-1.789 -2)" fill="#d92928"/>
</svg>
