<svg xmlns="http://www.w3.org/2000/svg" width="30.058" height="30.058" viewBox="0 0 30.058 30.058">
  <path id="clock-regular" d="M23.029,8A15.029,15.029,0,1,0,38.058,23.029,15.026,15.026,0,0,0,23.029,8Zm0,27.149a12.12,12.12,0,1,1,12.12-12.12A12.117,12.117,0,0,1,23.029,35.149Zm3.745-6.327-5.145-3.739a.732.732,0,0,1-.3-.588V14.545a.729.729,0,0,1,.727-.727H24a.729.729,0,0,1,.727.727v8.587l4.048,2.945a.727.727,0,0,1,.158,1.018l-1.139,1.57a.732.732,0,0,1-1.018.158Z" transform="translate(-8 -8)" fill="#f9f5f5"/>
</svg>
