<svg xmlns="http://www.w3.org/2000/svg" width="51.378" height="53.713" viewBox="0 0 51.378 53.713">
  <path id="icons8_coin_wallet" d="M28.521,3A10.522,10.522,0,0,0,18.012,13.509a10.139,10.139,0,0,0,.119,1.168H22.8a5.838,5.838,0,1,1,11.439,0h4.671a10.138,10.138,0,0,0,.119-1.168,10.389,10.389,0,0,0-.374-2.627,4.661,4.661,0,0,1,7.38,3.795h4.671A9.292,9.292,0,0,0,36.494,6.745,10.444,10.444,0,0,0,28.521,3ZM11.006,10.006A7.042,7.042,0,0,0,4,17.012V49.707a7.006,7.006,0,0,0,7.006,7.006h39.7a4.669,4.669,0,0,0,4.671-4.671V24.018a4.669,4.669,0,0,0-4.671-4.671h-39.7a2.335,2.335,0,1,1,0-4.671h2.335V10.006ZM46.036,33.36a4.671,4.671,0,1,1-4.671,4.671A4.669,4.669,0,0,1,46.036,33.36Z" transform="translate(-4 -3)" fill="#707070"/>
</svg>
