<svg xmlns="http://www.w3.org/2000/svg" width="56.68" height="58.495" viewBox="0 0 56.68 58.495">
  <path id="icons8_contract" d="M12.919,4C7.45,4,3,8.073,3,13.079v2.594a1.364,1.364,0,0,0,1.417,1.3H41.259a1.36,1.36,0,0,0,1.417-1.3V11.782A8.953,8.953,0,0,1,47.5,4ZM52.6,5.3c-3.913,0-7.085,2.9-7.085,6.485v3.891a4.091,4.091,0,0,1-4.251,3.891H11.5V57.175a1.36,1.36,0,0,0,1.417,1.3H34.174v2.716a1.281,1.281,0,0,0,.775,1.165,1.52,1.52,0,0,0,1.483-.111l4.827-3.323,4.827,3.323a1.52,1.52,0,0,0,1.483.111,1.281,1.281,0,0,0,.775-1.165V58.472h9.919a1.357,1.357,0,0,0,1.417-1.3V11.782C59.68,8.2,56.508,5.3,52.6,5.3ZM21.421,23.454h28.34v2.594H21.421Zm0,7.782h28.34V33.83H21.421Zm19.838,6.728a2,2,0,0,1,1.993,1.3c.144.132.127.162.266.162a2.344,2.344,0,0,1,2.435.122,1.673,1.673,0,0,1,.531,2.067c0,.132.177.116.177.243a2.034,2.034,0,0,1,1.683,1.581,1.86,1.86,0,0,1-.974,1.945v.365a1.891,1.891,0,0,1,.133,2.108,2.192,2.192,0,0,1-1.816.932,2.069,2.069,0,0,1-.31-.041c0,.132-.172.116-.31.243a1.67,1.67,0,0,1-1.24,1.7,1.35,1.35,0,0,1-.709.122,2.466,2.466,0,0,1-1.594-.648h-.531a2.367,2.367,0,0,1-1.594.608,2.44,2.44,0,0,1-.708-.081,1.845,1.845,0,0,1-1.24-1.7c0-.132-.166-.116-.31-.243a2.028,2.028,0,0,1-2.125-.892,1.681,1.681,0,0,1,.133-2.108v-.365a1.86,1.86,0,0,1-.974-1.945,2.027,2.027,0,0,1,1.683-1.581c0-.132.177-.116.177-.243a1.675,1.675,0,0,1,.531-2.067A2.344,2.344,0,0,1,39,39.423c.144-.132.127-.162.266-.162A2.133,2.133,0,0,1,41.259,37.964ZM37.008,52.8a4.767,4.767,0,0,0,.664.284c.05.02.083.066.133.081a5.438,5.438,0,0,0,1.594.2,5.259,5.259,0,0,0,1.816-.324,5.371,5.371,0,0,0,1.9.365,4.291,4.291,0,0,0,1.771-.324,5,5,0,0,0,.62-.243v5.8L42.1,56.283a1.518,1.518,0,0,0-1.683,0l-3.41,2.351Z" transform="translate(-3 -4)" fill="#707070"/>
</svg>
