<svg xmlns="http://www.w3.org/2000/svg" width="34.232" height="40.212" viewBox="0 0 34.232 40.212">
  <g id="double-right" transform="translate(-1001.606 -1848.991)">
    <path id="icons8_expand_arrow" d="M21.106,18.33,35.794,6.914a2,2,0,0,1,2.356.01l2.572,2.041a1.147,1.147,0,0,1-.007,1.885L22.291,25.378a2,2,0,0,1-2.369,0L1.5,10.851a1.147,1.147,0,0,1-.007-1.885L4.063,6.925a2,2,0,0,1,2.356-.01Z" transform="translate(995.07 1890.203) rotate(-90)"/>
    <path id="icons8_expand_arrow-2" data-name="icons8_expand_arrow" d="M21.106,18.33,35.794,6.914a2,2,0,0,1,2.356.01l2.572,2.041a1.147,1.147,0,0,1-.007,1.885L22.291,25.378a2,2,0,0,1-2.369,0L1.5,10.851a1.147,1.147,0,0,1-.007-1.885L4.063,6.925a2,2,0,0,1,2.356-.01Z" transform="translate(1010.07 1890.203) rotate(-90)"/>
  </g>
</svg>
