<svg xmlns="http://www.w3.org/2000/svg" width="30.058" height="30.058" viewBox="0 0 30.058 30.058">
  <path id="download-solid" d="M12.681,0h4.7a1.406,1.406,0,0,1,1.409,1.409v9.863h5.149a1.172,1.172,0,0,1,.828,2l-8.929,8.935a1.137,1.137,0,0,1-1.6,0L5.29,13.274a1.172,1.172,0,0,1,.828-2h5.155V1.409A1.406,1.406,0,0,1,12.681,0ZM30.058,22.074v6.575a1.406,1.406,0,0,1-1.409,1.409H1.409A1.406,1.406,0,0,1,0,28.649V22.074a1.406,1.406,0,0,1,1.409-1.409h8.612L12.9,23.542a3.008,3.008,0,0,0,4.262,0l2.877-2.877h8.612A1.406,1.406,0,0,1,30.058,22.074Zm-7.28,5.166A1.174,1.174,0,1,0,21.6,28.414,1.178,1.178,0,0,0,22.778,27.24Zm3.757,0a1.174,1.174,0,1,0-1.174,1.174A1.178,1.178,0,0,0,26.536,27.24Z" fill="#fff"/>
</svg>
