<svg xmlns="http://www.w3.org/2000/svg" width="65.518" height="50.398" viewBox="0 0 65.518 50.398">
  <path id="icons8_engine_1" d="M27.719,2a2.484,2.484,0,0,0-2.2,2.52V7.04a2.483,2.483,0,0,0,2.441,2.52h4.8v2.52h7.56V9.56h5.04a2.488,2.488,0,0,0,2.52-2.52V4.52A2.488,2.488,0,0,0,45.358,2H27.719ZM25.2,14.6c-.5,0-.994.532-1.5.787l-6.851,6.772H12.6c-.758,0-.974.286-1.732.787a1.665,1.665,0,0,0-.787,1.732v5.04H7.56v-4.8A2.523,2.523,0,0,0,5.04,22.4H2.52A2.352,2.352,0,0,0,0,24.916V42.555a2.523,2.523,0,0,0,2.52,2.52H5.04a2.523,2.523,0,0,0,2.52-2.52v-5.04h2.52v5.04a2.523,2.523,0,0,0,2.52,2.52h4.016L23.7,51.611a2.207,2.207,0,0,0,1.5.787H42.838a2.25,2.25,0,0,0,1.732-.787l10.08-10.08a2.207,2.207,0,0,0,.787-1.5v-2.52h2.52v4.8a2.522,2.522,0,0,0,2.52,2.52H63a2.522,2.522,0,0,0,2.52-2.52V24.679a2.716,2.716,0,0,0-2.284-2.52h-2.52a2.522,2.522,0,0,0-2.52,2.52v5.04h-2.52V17.12a2.523,2.523,0,0,0-2.52-2.52Zm9.607,7.8h5.985l-5.985,10.08h5.749v-.236h.236l-.236.236L29.215,47.122l4.331-11.891H28.191Z" transform="translate(0 -2)" fill="#fff"/>
</svg>
