<svg xmlns="http://www.w3.org/2000/svg" width="32.214" height="30.289" viewBox="0 0 32.214 30.289">
  <path id="icons8_home_1" d="M25.2,2.031a1.266,1.266,0,0,0-1.264,1.264V9.337L17.265,2.663a1.3,1.3,0,0,0-1.817,0L.64,17.511a1.257,1.257,0,0,0,1.777,1.777l13.94-13.94L30.336,19.328a1.316,1.316,0,0,0,.908.395,1.227,1.227,0,0,0,.869-.395,1.251,1.251,0,0,0,0-1.777L27.73,13.167V3.295a1.266,1.266,0,0,0-1.264-1.264ZM16.357,7.678l-13.9,13.9v6.95A3.792,3.792,0,0,0,6.247,32.32H26.466a3.792,3.792,0,0,0,3.791-3.791v-6.95Zm-2.527,12h5.055a1.266,1.266,0,0,1,1.264,1.264v7.582a1.266,1.266,0,0,1-1.264,1.264H13.829a1.266,1.266,0,0,1-1.264-1.264V20.947A1.266,1.266,0,0,1,13.829,19.683Z" transform="translate(-0.27 -2.031)" fill="#fff"/>
</svg>
