<svg width="38" height="37" viewBox="0 0 38 37" fill="none" xmlns="http://www.w3.org/2000/svg">
<path d="M13.6792 6.81592C9.85817 6.81592 6.85596 9.81501 6.85596 13.632V24.5378C6.85596 28.3548 9.85817 31.3539 13.6792 31.3539H24.5963C28.4173 31.3539 31.4195 28.3548 31.4195 24.5378V13.632C31.4195 9.81501 28.4173 6.81592 24.5963 6.81592H13.6792ZM13.6792 9.54236H24.5963C26.9162 9.54236 28.6902 11.3146 28.6902 13.632V24.5378C28.6902 26.8553 26.9162 28.6275 24.5963 28.6275H13.6792C11.3593 28.6275 9.58524 26.8553 9.58524 24.5378V13.632C9.58524 11.3146 11.3593 9.54236 13.6792 9.54236ZM25.9609 10.9056C25.1421 10.9056 24.5963 11.4509 24.5963 12.2688C24.5963 13.0867 25.1421 13.632 25.9609 13.632C26.7797 13.632 27.3256 13.0867 27.3256 12.2688C27.3256 11.4509 26.7797 10.9056 25.9609 10.9056ZM19.1377 12.2688C15.3167 12.2688 12.3145 15.2679 12.3145 19.0849C12.3145 22.9019 15.3167 25.901 19.1377 25.901C22.9587 25.901 25.9609 22.9019 25.9609 19.0849C25.9609 15.2679 22.9587 12.2688 19.1377 12.2688ZM19.1377 14.9953C21.4576 14.9953 23.2316 16.7674 23.2316 19.0849C23.2316 21.4024 21.4576 23.1746 19.1377 23.1746C16.8178 23.1746 15.0438 21.4024 15.0438 19.0849C15.0438 16.7674 16.8178 14.9953 19.1377 14.9953Z" fill="white"/>
</svg>
