<svg xmlns="http://www.w3.org/2000/svg" width="40.467" height="40.458" viewBox="0 0 40.467 40.458">
  <path id="instagram" d="M20.163,41.681A10.373,10.373,0,1,0,30.536,52.054,10.357,10.357,0,0,0,20.163,41.681Zm0,17.117a6.744,6.744,0,1,1,6.744-6.744A6.756,6.756,0,0,1,20.163,58.8ZM33.38,41.257a2.419,2.419,0,1,1-2.419-2.419A2.414,2.414,0,0,1,33.38,41.257Zm6.87,2.456c-.153-3.241-.894-6.112-3.268-8.477S31.746,32.13,28.5,31.967c-3.34-.19-13.352-.19-16.693,0-3.232.153-6.1.894-8.477,3.259S.23,40.462.067,43.7c-.19,3.34-.19,13.352,0,16.693.153,3.241.894,6.112,3.268,8.477s5.236,3.106,8.477,3.268c3.34.19,13.352.19,16.693,0,3.241-.153,6.112-.894,8.477-3.268s3.106-5.236,3.268-8.477C40.44,57.056,40.44,47.053,40.25,43.712ZM35.935,63.98a6.827,6.827,0,0,1-3.846,3.846c-2.663,1.056-8.983.813-11.926.813s-9.272.235-11.926-.813A6.828,6.828,0,0,1,4.392,63.98C3.335,61.317,3.579,55,3.579,52.054s-.235-9.272.813-11.926a6.828,6.828,0,0,1,3.846-3.846c2.663-1.056,8.983-.813,11.926-.813s9.272-.235,11.926.813a6.828,6.828,0,0,1,3.846,3.846c1.056,2.663.813,8.983.813,11.926S36.991,61.326,35.935,63.98Z" transform="translate(0.075 -31.825)" fill="#fff"/>
</svg>
