<svg xmlns="http://www.w3.org/2000/svg" width="30.895" height="23.171" viewBox="0 0 30.895 23.171">
  <path id="envelope-regular" d="M28,64H2.9A2.9,2.9,0,0,0,0,66.9V84.275a2.9,2.9,0,0,0,2.9,2.9H28a2.9,2.9,0,0,0,2.9-2.9V66.9A2.9,2.9,0,0,0,28,64Zm0,2.9v2.462c-1.353,1.1-3.51,2.815-8.121,6.426-1.016.8-3.029,2.72-4.43,2.7-1.4.023-3.414-1.9-4.43-2.7-4.61-3.61-6.768-5.324-8.121-6.426V66.9ZM2.9,84.275v-11.2c1.383,1.1,3.343,2.647,6.332,4.987,1.319,1.038,3.629,3.33,6.219,3.316,2.578.014,4.858-2.245,6.218-3.316,2.989-2.34,4.95-3.886,6.333-4.987v11.2Z" transform="translate(0 -64)" fill="#fff"/>
</svg>
