<svg xmlns="http://www.w3.org/2000/svg" width="29.64" height="33.701" viewBox="0 0 29.64 33.701">
  <path id="icons8_office_phone" d="M5.326.986A1.347,1.347,0,0,0,4,2.352v29.64a2.694,2.694,0,0,0,2.695,2.695h5.389a2.694,2.694,0,0,0,2.695-2.695V7.741a2.694,2.694,0,0,0-2.695-2.695H6.695V2.352A1.347,1.347,0,0,0,5.326.986ZM17.473,6.394v4.042H29.6V13.13H17.473v2.695H18.82v2.695H17.473v2.695H18.82v2.695H17.473V26.6H18.82V29.3H17.473V33.34H30.946a2.694,2.694,0,0,0,2.695-2.695V9.088a2.694,2.694,0,0,0-2.695-2.695Zm4.042,9.431h2.695v2.695H21.515Zm5.389,0H29.6v2.695H26.9Zm-5.389,5.389h2.695v2.695H21.515Zm5.389,0H29.6v2.695H26.9ZM21.515,26.6h2.695V29.3H21.515Zm5.389,0H29.6V29.3H26.9Z" transform="translate(-4 -0.986)" fill="#fff"/>
</svg>
