<svg xmlns="http://www.w3.org/2000/svg" width="56.68" height="58.495" viewBox="0 0 56.68 58.495">
  <path id="icons8_report_card" d="M1.771,2A2.587,2.587,0,0,0,0,4.659V57.836a2.46,2.46,0,0,0,2.18,2.659H54.5a2.46,2.46,0,0,0,2.18-2.659V4.659A2.46,2.46,0,0,0,54.5,2H1.771ZM4.36,7.318H52.32V55.177H4.36ZM45.712,12.8a1.852,1.852,0,0,0-.341.083,2.24,2.24,0,0,0-1.362,1.163l-1.771,3.074-1.022-1a1.937,1.937,0,0,0-3.066.5,3.071,3.071,0,0,0,.409,3.739l2.861,2.659a1.869,1.869,0,0,0,1.635.488,2.138,2.138,0,0,0,1.431-1.07l3.066-5.318a3.119,3.119,0,0,0,.238-2.887A2.133,2.133,0,0,0,45.712,12.8ZM10.9,15.294v5.318H32.7V15.294ZM45.712,26.1a1.834,1.834,0,0,0-.341.083,2.239,2.239,0,0,0-1.362,1.163l-1.771,3.074-1.022-1a1.937,1.937,0,0,0-3.066.5,3.071,3.071,0,0,0,.409,3.739l2.861,2.659a1.869,1.869,0,0,0,1.635.488,2.138,2.138,0,0,0,1.431-1.07l3.066-5.318a3.119,3.119,0,0,0,.238-2.887A2.133,2.133,0,0,0,45.712,26.1ZM10.9,28.588v5.318H32.7V28.588Zm34.812,10.8a1.834,1.834,0,0,0-.341.083,2.239,2.239,0,0,0-1.362,1.163l-1.771,3.074-1.022-1a1.937,1.937,0,0,0-3.066.5,3.071,3.071,0,0,0,.409,3.739L41.42,49.61a1.869,1.869,0,0,0,1.635.488,2.138,2.138,0,0,0,1.431-1.07l3.066-5.318a3.119,3.119,0,0,0,.238-2.887A2.133,2.133,0,0,0,45.712,39.39ZM10.9,41.883V47.2H32.7V41.883Z" transform="translate(0 -2)" fill="#707070"/>
</svg>
