<svg xmlns="http://www.w3.org/2000/svg" width="61.765" height="69.177" viewBox="0 0 61.765 69.177">
  <path id="secure-svgrepo-com" d="M73.222,9.682a2.261,2.261,0,0,0-1.633-1.867L43.785.083a2.26,2.26,0,0,0-1.212,0l-27.8,7.732a2.261,2.261,0,0,0-1.633,1.867c-.161,1.16-3.84,28.558,5.6,42.188A44.39,44.39,0,0,0,42.648,69.115a2.268,2.268,0,0,0,1.062,0A44.388,44.388,0,0,0,67.626,51.87C77.062,38.241,73.383,10.842,73.222,9.682Zm-12.113,16L42.144,44.643a2.26,2.26,0,0,1-3.2,0L27.221,32.917a2.26,2.26,0,0,1,0-3.2l2.328-2.328a2.261,2.261,0,0,1,3.2,0l7.8,7.8L55.583,20.152a2.26,2.26,0,0,1,3.2,0l2.328,2.328A2.261,2.261,0,0,1,61.109,25.678Z" transform="translate(-12.296 -0.001)" fill="#d92928"/>
</svg>
