<svg xmlns="http://www.w3.org/2000/svg" width="58.418" height="58.418" viewBox="0 0 58.418 58.418">
  <path id="thumbs-up-solid" d="M11.866,25.558H2.738A2.738,2.738,0,0,0,0,28.3V55.68a2.738,2.738,0,0,0,2.738,2.738h9.128A2.738,2.738,0,0,0,14.6,55.68V28.3A2.738,2.738,0,0,0,11.866,25.558ZM7.3,53.854a2.738,2.738,0,1,1,2.738-2.738A2.738,2.738,0,0,1,7.3,53.854ZM43.814,9.294c0,4.84-2.963,7.554-3.8,10.788H51.623a6.817,6.817,0,0,1,6.795,6.629A8.261,8.261,0,0,1,56.2,32.323l-.013.013A9.531,9.531,0,0,1,55.126,41.4a9.023,9.023,0,0,1-1.869,8.53,6.057,6.057,0,0,1-.7,5.092c-2.329,3.346-8.1,3.393-12.981,3.393h-.325c-5.509,0-10.018-2.008-13.642-3.62-1.821-.81-4.2-1.813-6.007-1.846a1.37,1.37,0,0,1-1.344-1.369V27.193a1.368,1.368,0,0,1,.406-.972c4.52-4.466,6.463-9.195,10.168-12.906,1.689-1.692,2.3-4.249,2.9-6.721C32.234,4.483,33.3,0,35.6,0,38.337,0,43.814.913,43.814,9.294Z" fill="#d92928"/>
</svg>
