<svg xmlns="http://www.w3.org/2000/svg" width="56.68" height="56.683" viewBox="0 0 56.68 56.683">
  <path id="tools-solid" d="M55.426,43.8,42.463,30.84A8.219,8.219,0,0,0,33.01,29.3l-11.8-11.8V10.627L7.04,0-.044,7.085,10.582,21.254h6.874l11.8,11.8A8.237,8.237,0,0,0,30.8,42.508L43.758,55.47a4.116,4.116,0,0,0,5.834,0l5.834-5.834A4.136,4.136,0,0,0,55.426,43.8Zm-18.752-18.9a11.647,11.647,0,0,1,8.291,3.432l2.148,2.148a15.669,15.669,0,0,0,4.849-3.266,15.92,15.92,0,0,0,4.2-15.132,1.325,1.325,0,0,0-2.225-.609L45.7,19.715l-7.516-1.251-1.251-7.516,8.236-8.236A1.336,1.336,0,0,0,44.533.476a15.946,15.946,0,0,0-15.121,4.2A15.687,15.687,0,0,0,24.851,16.14l9.088,9.088a12.059,12.059,0,0,1,2.734-.321Zm-11.5,9.077L18.9,27.708,2.026,44.589A7.084,7.084,0,1,0,12.044,54.607L25.726,40.925a11.887,11.887,0,0,1-.553-6.941ZM7.04,52.249A2.657,2.657,0,1,1,9.7,49.592,2.665,2.665,0,0,1,7.04,52.249Z" transform="translate(0.05)" fill="#707070"/>
</svg>
