<svg xmlns="http://www.w3.org/2000/svg" width="62.348" height="45.113" viewBox="0 0 62.348 45.113">
  <path id="icons8_in_transit" d="M0,4V6.4H19.184V8.8H4.8v2.4H0v2.4H16.786v2.4H4.8v2.4H0v2.4H14.388v2.4H4.8v2.4H0v2.4H11.99v2.4H4.8V39.97a2.262,2.262,0,0,0,2.4,2.4h2.4a8.522,8.522,0,0,1,8.393-7.419,8.321,8.321,0,0,1,8.393,7.419h7.194a2.262,2.262,0,0,0,2.4-2.4V6.4a2.262,2.262,0,0,0-2.4-2.4Zm40.766,9.592a2.262,2.262,0,0,0-2.4,2.4V39.97a2.4,2.4,0,0,0,2.4,2.4,8.522,8.522,0,0,1,8.393-7.419,8.321,8.321,0,0,1,8.393,7.419h2.4a2.262,2.262,0,0,0,2.4-2.4V27.98c0-2.154-1.948-4.8-1.948-4.8L55.154,15.99c-1.2-1.443-1.92-2.4-3.6-2.4Zm4.8,4.8h5.77a1.785,1.785,0,0,1,.974.45l5.021,6.969a4.919,4.919,0,0,1,.974,1.948H45.562ZM17.985,38.022a5.545,5.545,0,1,0,5.545,5.545A5.569,5.569,0,0,0,17.985,38.022Zm31.174,0A5.545,5.545,0,1,0,54.7,43.567,5.569,5.569,0,0,0,49.159,38.022Z" transform="translate(0 -4)" fill="#707070"/>
</svg>
