<svg width="42" height="37" viewBox="0 0 42 37" fill="none" xmlns="http://www.w3.org/2000/svg">
<path d="M32.9105 12.1995C33.0869 11.6039 32.9105 11.1655 32.0619 11.1655H29.254C28.5389 11.1655 28.21 11.542 28.0336 11.9613C28.0336 11.9613 26.6034 15.4444 24.5821 17.7029C23.929 18.3557 23.6286 18.5654 23.2711 18.5654C23.0947 18.5654 22.823 18.3557 22.823 17.7601V12.1995C22.823 11.4848 22.6228 11.1655 22.0316 11.1655H17.6171C17.169 11.1655 16.9021 11.4991 16.9021 11.8088C16.9021 12.4854 17.9127 12.6426 18.0176 14.5486V18.6845C18.0176 19.5898 17.8555 19.7566 17.498 19.7566C16.5445 19.7566 14.2276 16.2592 12.8547 12.2567C12.5782 11.48 12.3064 11.1655 11.5866 11.1655H8.77866C7.97776 11.1655 7.81567 11.542 7.81567 11.9613C7.81567 12.7046 8.76912 16.3973 12.254 21.2766C14.5756 24.6072 17.846 26.4131 20.8207 26.4131C22.6084 26.4131 22.8277 26.0128 22.8277 25.3219C22.8277 22.139 22.6657 21.8388 23.5619 21.8388C23.9767 21.8388 24.6917 22.0485 26.3603 23.6542C28.2672 25.5602 28.5818 26.4131 29.6497 26.4131H32.4576C33.2585 26.4131 33.6637 26.0128 33.4301 25.2219C32.8962 23.5589 29.2874 20.1378 29.1253 19.909C28.7105 19.3754 28.8297 19.1371 29.1253 18.6606C29.13 18.6559 32.5577 13.8338 32.9105 12.1995Z" fill="white"/>
</svg>
