<svg xmlns="http://www.w3.org/2000/svg" width="40.458" height="40.458" viewBox="0 0 40.458 40.458">
  <path id="vk" d="M12.507,5A7.536,7.536,0,0,0,5,12.507V37.952a7.536,7.536,0,0,0,7.507,7.507H37.952a7.536,7.536,0,0,0,7.507-7.507V12.507A7.536,7.536,0,0,0,37.952,5Zm0,3.678H37.952a3.805,3.805,0,0,1,3.829,3.829V37.952a3.805,3.805,0,0,1-3.829,3.829H12.507a3.805,3.805,0,0,1-3.829-3.829V12.507a3.805,3.805,0,0,1,3.829-3.829ZM24.712,18.3a8.212,8.212,0,0,0-3.147.316c-.43.208-.761.682-.561.7a1.726,1.726,0,0,1,1.12.568A3.63,3.63,0,0,1,22.5,21.6s.215,3.261-.524,3.671c-.509.28-1.206-.287-2.716-2.88a24.607,24.607,0,0,1-1.35-2.808,1.081,1.081,0,0,0-.309-.417,1.564,1.564,0,0,0-.581-.237l-3.6.022s-.539.022-.732.252-.015.64-.015.64,2.816,6.587,6.006,9.907a8.633,8.633,0,0,0,6.243,2.845H26.43a1.275,1.275,0,0,0,.682-.294,1.092,1.092,0,0,0,.208-.66s-.029-2.019.9-2.321,2.106,1.955,3.362,2.816a2.4,2.4,0,0,0,1.681.509l3.362-.05s1.753-.108.92-1.5a11.14,11.14,0,0,0-2.492-2.887c-2.111-1.955-1.832-1.639.712-5.021,1.545-2.062,2.163-3.319,1.968-3.866-.188-.509-1.322-.373-1.322-.373l-3.787.022a.875.875,0,0,0-.489.086,1.065,1.065,0,0,0-.331.41,22.33,22.33,0,0,1-1.4,2.952c-1.681,2.86-2.363,3.018-2.637,2.838-.64-.417-.482-1.666-.482-2.551,0-2.781.423-3.93-.818-4.232a6.256,6.256,0,0,0-1.76-.173Z" transform="translate(-5 -5)" fill="#fff"/>
</svg>
