<svg width="305" height="29" viewBox="0 0 305 29" fill="none" xmlns="http://www.w3.org/2000/svg">
<path d="M21.8681 28.0001L21.8001 15.3861L15.6801 25.6541H12.6881L6.60213 15.7261V28.0001H0.380127V4.20006H5.92213L14.2861 17.9361L22.4461 4.20006H27.9881L28.0561 28.0001H21.8681Z" fill="white"/>
<path d="M40.3676 9.26606C43.4276 9.26606 45.7622 9.96873 47.3716 11.3741C48.9809 12.7567 49.7856 14.8874 49.7856 17.7661V28.0001H43.7676V25.6201C42.8382 27.4107 41.0249 28.3061 38.3276 28.3061C36.8996 28.3061 35.6642 28.0567 34.6216 27.5581C33.5789 27.0594 32.7856 26.3907 32.2416 25.5521C31.7202 24.6907 31.4596 23.7161 31.4596 22.6281C31.4596 20.8827 32.1282 19.5341 33.4656 18.5821C34.8029 17.6074 36.8656 17.1201 39.6536 17.1201H43.3256C43.2122 15.1707 41.9089 14.1961 39.4156 14.1961C38.5316 14.1961 37.6362 14.3434 36.7296 14.6381C35.8229 14.9101 35.0522 15.2954 34.4176 15.7941L32.2416 11.4081C33.2616 10.7281 34.4969 10.2067 35.9476 9.84406C37.4209 9.45873 38.8942 9.26606 40.3676 9.26606ZM40.1296 24.2261C40.8776 24.2261 41.5349 24.0447 42.1016 23.6821C42.6682 23.3194 43.0762 22.7867 43.3256 22.0841V20.4861H40.5376C38.6562 20.4861 37.7156 21.1094 37.7156 22.3561C37.7156 22.9227 37.9309 23.3761 38.3616 23.7161C38.7922 24.0561 39.3816 24.2261 40.1296 24.2261Z" fill="white"/>
<path d="M60.5612 28.3061C59.0199 28.3061 57.5012 28.1361 56.0052 27.7961C54.5092 27.4334 53.3079 26.9687 52.4012 26.4021L54.3392 21.9821C55.1779 22.5034 56.1752 22.9227 57.3312 23.2401C58.4872 23.5347 59.6319 23.6821 60.7652 23.6821C61.8079 23.6821 62.5445 23.5801 62.9752 23.3761C63.4285 23.1494 63.6552 22.8321 63.6552 22.4241C63.6552 22.0161 63.3832 21.7327 62.8392 21.5741C62.3179 21.3927 61.4792 21.2227 60.3232 21.0641C58.8499 20.8827 57.5919 20.6447 56.5492 20.3501C55.5292 20.0554 54.6452 19.5114 53.8972 18.7181C53.1492 17.9247 52.7752 16.8141 52.7752 15.3861C52.7752 14.2074 53.1265 13.1647 53.8292 12.2581C54.5319 11.3287 55.5519 10.6034 56.8892 10.0821C58.2492 9.53806 59.8699 9.26606 61.7512 9.26606C63.0885 9.26606 64.4145 9.40206 65.7292 9.67406C67.0439 9.94606 68.1432 10.3314 69.0272 10.8301L67.0892 15.2161C65.4572 14.3094 63.6892 13.8561 61.7852 13.8561C60.7652 13.8561 60.0172 13.9807 59.5412 14.2301C59.0652 14.4567 58.8272 14.7627 58.8272 15.1481C58.8272 15.5787 59.0879 15.8847 59.6092 16.0661C60.1305 16.2247 60.9919 16.3947 62.1932 16.5761C63.7119 16.8027 64.9699 17.0634 65.9672 17.3581C66.9645 17.6527 67.8259 18.1967 68.5512 18.9901C69.2992 19.7607 69.6732 20.8487 69.6732 22.2541C69.6732 23.4101 69.3219 24.4527 68.6192 25.3821C67.9165 26.2887 66.8739 27.0027 65.4912 27.5241C64.1312 28.0454 62.4879 28.3061 60.5612 28.3061Z" fill="white"/>
<path d="M85.1729 27.2521C84.6289 27.5921 83.9603 27.8527 83.1669 28.0341C82.3963 28.2154 81.5689 28.3061 80.6849 28.3061C78.2823 28.3061 76.4349 27.7167 75.1429 26.5381C73.8509 25.3594 73.2049 23.6027 73.2049 21.2681V15.0801H70.5189V10.2521H73.2049V5.45806H79.6649V10.2521H83.8809V15.0801H79.6649V21.2001C79.6649 21.8574 79.8349 22.3787 80.1749 22.7641C80.5376 23.1267 81.0136 23.3081 81.6029 23.3081C82.3509 23.3081 83.0083 23.1154 83.5749 22.7301L85.1729 27.2521Z" fill="white"/>
<path d="M105.969 18.8201C105.969 18.8654 105.935 19.3981 105.867 20.4181H92.4707C92.7427 21.3701 93.2641 22.1067 94.0347 22.6281C94.8281 23.1267 95.8141 23.3761 96.9927 23.3761C97.8767 23.3761 98.6361 23.2514 99.2707 23.0021C99.9281 22.7527 100.585 22.3447 101.243 21.7781L104.643 25.3141C102.852 27.3087 100.234 28.3061 96.7887 28.3061C94.6354 28.3061 92.7427 27.8981 91.1107 27.0821C89.4787 26.2661 88.2094 25.1327 87.3027 23.6821C86.4187 22.2314 85.9767 20.5881 85.9767 18.7521C85.9767 16.9387 86.4074 15.3181 87.2687 13.8901C88.1527 12.4394 89.3654 11.3061 90.9067 10.4901C92.4481 9.67406 94.1821 9.26606 96.1087 9.26606C97.9447 9.26606 99.6107 9.6514 101.107 10.4221C102.603 11.1701 103.781 12.2694 104.643 13.7201C105.527 15.1481 105.969 16.8481 105.969 18.8201ZM96.1427 13.8561C95.1454 13.8561 94.3067 14.1394 93.6267 14.7061C92.9694 15.2727 92.5501 16.0434 92.3687 17.0181H99.9167C99.7354 16.0434 99.3047 15.2727 98.6247 14.7061C97.9674 14.1394 97.1401 13.8561 96.1427 13.8561Z" fill="white"/>
<path d="M115.101 11.7821C115.759 10.9434 116.609 10.3201 117.651 9.91206C118.717 9.4814 119.929 9.26606 121.289 9.26606V15.0801C120.7 15.0121 120.213 14.9781 119.827 14.9781C118.445 14.9781 117.357 15.3521 116.563 16.1001C115.793 16.8481 115.407 17.9927 115.407 19.5341V28.0001H108.947V9.57206H115.101V11.7821Z" fill="white"/>
<path d="M142.586 28.4761C140.659 28.4761 138.789 28.2381 136.976 27.7621C135.163 27.2861 133.689 26.6514 132.556 25.8581L134.766 20.8941C135.831 21.5967 137.067 22.1634 138.472 22.5941C139.877 23.0247 141.26 23.2401 142.62 23.2401C145.204 23.2401 146.496 22.5941 146.496 21.3021C146.496 20.6221 146.122 20.1234 145.374 19.8061C144.649 19.4661 143.47 19.1147 141.838 18.7521C140.047 18.3667 138.551 17.9587 137.35 17.5281C136.149 17.0747 135.117 16.3607 134.256 15.3861C133.395 14.4114 132.964 13.0967 132.964 11.4421C132.964 9.9914 133.361 8.68806 134.154 7.53206C134.947 6.35339 136.126 5.42406 137.69 4.74406C139.277 4.06406 141.215 3.72406 143.504 3.72406C145.068 3.72406 146.609 3.9054 148.128 4.26806C149.647 4.60806 150.984 5.11806 152.14 5.79806L150.066 10.7961C147.799 9.57206 145.601 8.96006 143.47 8.96006C142.133 8.96006 141.158 9.16406 140.546 9.57206C139.934 9.9574 139.628 10.4674 139.628 11.1021C139.628 11.7367 139.991 12.2127 140.716 12.5301C141.441 12.8474 142.609 13.1761 144.218 13.5161C146.031 13.9014 147.527 14.3207 148.706 14.7741C149.907 15.2047 150.939 15.9074 151.8 16.8821C152.684 17.8341 153.126 19.1374 153.126 20.7921C153.126 22.2201 152.729 23.5121 151.936 24.6681C151.143 25.8241 149.953 26.7534 148.366 27.4561C146.779 28.1361 144.853 28.4761 142.586 28.4761Z" fill="white"/>
<path d="M174.766 18.8201C174.766 18.8654 174.732 19.3981 174.664 20.4181H161.268C161.54 21.3701 162.061 22.1067 162.832 22.6281C163.625 23.1267 164.611 23.3761 165.79 23.3761C166.674 23.3761 167.433 23.2514 168.068 23.0021C168.725 22.7527 169.382 22.3447 170.04 21.7781L173.44 25.3141C171.649 27.3087 169.031 28.3061 165.586 28.3061C163.432 28.3061 161.54 27.8981 159.908 27.0821C158.276 26.2661 157.006 25.1327 156.1 23.6821C155.216 22.2314 154.774 20.5881 154.774 18.7521C154.774 16.9387 155.204 15.3181 156.066 13.8901C156.95 12.4394 158.162 11.3061 159.704 10.4901C161.245 9.67406 162.979 9.26606 164.906 9.26606C166.742 9.26606 168.408 9.6514 169.904 10.4221C171.4 11.1701 172.578 12.2694 173.44 13.7201C174.324 15.1481 174.766 16.8481 174.766 18.8201ZM164.94 13.8561C163.942 13.8561 163.104 14.1394 162.424 14.7061C161.766 15.2727 161.347 16.0434 161.166 17.0181H168.714C168.532 16.0434 168.102 15.2727 167.422 14.7061C166.764 14.1394 165.937 13.8561 164.94 13.8561Z" fill="white"/>
<path d="M183.898 11.7821C184.555 10.9434 185.405 10.3201 186.448 9.91206C187.513 9.4814 188.726 9.26606 190.086 9.26606V15.0801C189.497 15.0121 189.009 14.9781 188.624 14.9781C187.241 14.9781 186.153 15.3521 185.36 16.1001C184.589 16.8481 184.204 17.9927 184.204 19.5341V28.0001H177.744V9.57206H183.898V11.7821Z" fill="white"/>
<path d="M212.73 9.57206L205.114 28.0001H198.45L190.868 9.57206H197.498L201.918 20.8261L206.576 9.57206H212.73Z" fill="white"/>
<path d="M214.4 9.57206H220.86V28.0001H214.4V9.57206ZM217.63 7.53206C216.452 7.53206 215.5 7.20339 214.774 6.54606C214.049 5.88873 213.686 5.07273 213.686 4.09806C213.686 3.12339 214.049 2.30739 214.774 1.65006C215.5 0.992729 216.452 0.664062 217.63 0.664062C218.809 0.664062 219.761 0.981396 220.486 1.61606C221.212 2.22806 221.574 3.0214 221.574 3.99606C221.574 5.01606 221.212 5.86606 220.486 6.54606C219.761 7.20339 218.809 7.53206 217.63 7.53206Z" fill="white"/>
<path d="M234.477 28.3061C232.437 28.3061 230.612 27.8981 229.003 27.0821C227.393 26.2661 226.135 25.1327 225.229 23.6821C224.345 22.2314 223.902 20.5881 223.902 18.7521C223.902 16.9161 224.345 15.2841 225.229 13.8561C226.135 12.4054 227.393 11.2834 229.003 10.4901C230.612 9.67406 232.437 9.26606 234.477 9.26606C236.562 9.26606 238.364 9.7194 239.882 10.6261C241.401 11.5101 242.478 12.7454 243.113 14.3321L238.115 16.8821C237.276 15.2274 236.052 14.4001 234.443 14.4001C233.287 14.4001 232.323 14.7854 231.552 15.5561C230.804 16.3267 230.43 17.3921 230.43 18.7521C230.43 20.1347 230.804 21.2227 231.552 22.0161C232.323 22.7867 233.287 23.1721 234.443 23.1721C236.052 23.1721 237.276 22.3447 238.115 20.6901L243.113 23.2401C242.478 24.8267 241.401 26.0734 239.882 26.9801C238.364 27.8641 236.562 28.3061 234.477 28.3061Z" fill="white"/>
<path d="M264.182 18.8201C264.182 18.8654 264.148 19.3981 264.08 20.4181H250.684C250.956 21.3701 251.477 22.1067 252.248 22.6281C253.041 23.1267 254.027 23.3761 255.206 23.3761C256.09 23.3761 256.849 23.2514 257.484 23.0021C258.141 22.7527 258.798 22.3447 259.456 21.7781L262.856 25.3141C261.065 27.3087 258.447 28.3061 255.002 28.3061C252.848 28.3061 250.956 27.8981 249.324 27.0821C247.692 26.2661 246.422 25.1327 245.516 23.6821C244.632 22.2314 244.19 20.5881 244.19 18.7521C244.19 16.9387 244.62 15.3181 245.482 13.8901C246.366 12.4394 247.578 11.3061 249.12 10.4901C250.661 9.67406 252.395 9.26606 254.322 9.26606C256.158 9.26606 257.824 9.6514 259.32 10.4221C260.816 11.1701 261.994 12.2694 262.856 13.7201C263.74 15.1481 264.182 16.8481 264.182 18.8201ZM254.356 13.8561C253.358 13.8561 252.52 14.1394 251.84 14.7061C251.182 15.2727 250.763 16.0434 250.582 17.0181H258.13C257.948 16.0434 257.518 15.2727 256.838 14.7061C256.18 14.1394 255.353 13.8561 254.356 13.8561Z" fill="white"/>
<path d="M284.692 4.20006V8.41606L276.294 28.0001H268.95L276.974 9.53806H270.718V13.2101H264.972V4.20006H284.692Z" fill="white"/>
<path d="M298.835 13.7201C300.807 14.1281 302.314 14.9441 303.357 16.1681C304.422 17.3694 304.955 18.8314 304.955 20.5541C304.955 21.9594 304.569 23.2627 303.799 24.4641C303.051 25.6654 301.895 26.6401 300.331 27.3881C298.789 28.1134 296.874 28.4761 294.585 28.4761C292.907 28.4761 291.241 28.2721 289.587 27.8641C287.955 27.4561 286.538 26.8781 285.337 26.1301L287.785 21.0641C288.714 21.6987 289.757 22.1861 290.913 22.5261C292.091 22.8661 293.247 23.0361 294.381 23.0361C295.537 23.0361 296.455 22.8207 297.135 22.3901C297.815 21.9594 298.155 21.3474 298.155 20.5541C298.155 19.0127 296.942 18.2421 294.517 18.2421H291.695V13.9921L295.945 9.40206H286.561V4.20006H303.765V8.41606L298.835 13.7201Z" fill="white"/>
</svg>
