<svg id="Logo" xmlns="http://www.w3.org/2000/svg" width="544" height="70" viewBox="0 0 544 70">
  <g id="Сгруппировать_32" data-name="Сгруппировать 32" transform="translate(231)">
    <rect id="Прямоугольник_42" data-name="Прямоугольник 42" width="313" height="70" fill="#d92928"/>
    <path id="Контур_81" data-name="Контур 81" d="M-127.049.7c11.6,0,17.226-5.8,17.226-12.586,0-14.906-23.606-9.744-23.606-17.226,0-2.552,2.146-4.64,7.714-4.64a22.931,22.931,0,0,1,11.252,3.19l2.9-7.134c-3.77-2.378-8.99-3.6-14.094-3.6-11.542,0-17.11,5.742-17.11,12.644,0,15.08,23.606,9.86,23.606,17.458,0,2.494-2.262,4.35-7.83,4.35a23.881,23.881,0,0,1-13.4-4.234L-143.579-4C-139.983-1.218-133.487.7-127.049.7Zm53.592-16.182c0-10.034-7.076-16.182-16.24-16.182-9.512,0-16.646,6.728-16.646,16.066,0,9.28,7.018,16.066,17.806,16.066,5.626,0,9.976-1.74,12.876-5.046L-80.475-9.8a10.578,10.578,0,0,1-7.83,3.016c-4.756,0-8.062-2.378-8.932-6.264h23.606C-73.573-13.8-73.457-14.79-73.457-15.486Zm-16.182-9.338a7.415,7.415,0,0,1,7.656,6.5h-15.37A7.387,7.387,0,0,1-89.639-24.824Zm30.856-2.262V-31.2h-8.642V0h9.048V-14.732c0-5.974,3.306-8.7,8.294-8.7.7,0,1.276.058,2.03.116v-8.352C-52.867-31.668-56.579-30.1-58.783-27.086Zm39.5-4.118L-28.217-9.976-36.859-31.2H-46.2L-33.089,0h9.338l13.166-31.2Zm16.936-4.35c3.364,0,5.626-2.2,5.626-5.22,0-2.784-2.262-4.872-5.626-4.872s-5.626,2.2-5.626,5.046S-5.713-35.554-2.349-35.554ZM-6.873,0H2.175V-31.2H-6.873ZM25.665.464c6.554,0,11.716-2.9,13.978-7.888l-7.018-3.828A7.677,7.677,0,0,1,25.607-6.96c-4.582,0-8.178-3.19-8.178-8.642s3.6-8.642,8.178-8.642a7.781,7.781,0,0,1,7.018,4.292l7.018-3.77c-2.262-5.1-7.424-7.946-13.978-7.946-10.15,0-17.4,6.67-17.4,16.066S15.515.464,25.665.464Zm49.358-15.95c0-10.034-7.076-16.182-16.24-16.182-9.512,0-16.646,6.728-16.646,16.066,0,9.28,7.018,16.066,17.806,16.066,5.626,0,9.976-1.74,12.876-5.046L68-9.8a10.578,10.578,0,0,1-7.83,3.016c-4.756,0-8.062-2.378-8.932-6.264H74.849C74.907-13.8,75.023-14.79,75.023-15.486ZM58.841-24.824a7.415,7.415,0,0,1,7.656,6.5H51.127A7.387,7.387,0,0,1,58.841-24.824ZM76.821-40.6v14.268h8.352v-6.612H98.629L84.071,0H94.279l15.08-34.51V-40.6ZM132.1-24.07l9.164-10.44V-40.6h-28.42v7.54h17.284l-8.352,9.454V-17.4h4.292c5.336,0,7.6,1.914,7.6,4.988,0,3.306-2.9,5.22-7.6,5.22a19.718,19.718,0,0,1-11.6-3.654l-3.654,7.192C114.753-.87,120.611.7,126.3.7c11.542,0,16.82-6.264,16.82-13.108C143.115-18.386,139.4-22.91,132.1-24.07Z" transform="translate(157 56)" fill="#fff"/>
  </g>
  <g id="Сгруппировать_31" data-name="Сгруппировать 31">
    <g id="Прямоугольник_41" data-name="Прямоугольник 41" fill="#275988" stroke="#275988" stroke-width="5">
      <rect width="231" height="70" stroke="none"/>
      <rect x="2.5" y="2.5" width="226" height="65" fill="none"/>
    </g>
    <path id="Контур_80" data-name="Контур 80" d="M-53.331,0l-.116-40.6h-7.714L-76.125-15.37l-15.2-25.23h-7.772V0h8.816V-23.838l11.89,19.546h4.234L-62.2-24.36-62.147,0Zm21.576-31.668c-4.988,0-10.034,1.334-13.456,3.77l3.248,6.322a15,15,0,0,1,8.99-2.9c4.872,0,7.192,2.262,7.192,6.148h-7.192c-9.512,0-13.4,3.828-13.4,9.338,0,5.394,4.35,9.454,11.658,9.454,4.582,0,7.83-1.508,9.512-4.35V0h8.468V-17.806C-16.733-27.26-22.243-31.668-31.755-31.668Zm-.7,26.042c-3.19,0-5.1-1.508-5.1-3.77,0-2.088,1.334-3.654,5.568-3.654h6.206v3.19C-26.825-7.018-29.435-5.626-32.451-5.626ZM1.943.464c9.338,0,14.732-4.118,14.732-9.918,0-12.3-18.85-7.134-18.85-12.47,0-1.624,1.74-2.9,5.8-2.9a17.919,17.919,0,0,1,8.99,2.32l3.016-6.438c-2.958-1.74-7.714-2.726-12.006-2.726-9.106,0-14.442,4.176-14.442,10.092,0,12.47,18.85,7.25,18.85,12.354,0,1.74-1.566,2.842-5.742,2.842A21.349,21.349,0,0,1-8.555-9.4l-3.016,6.5C-8.671-.986-3.335.464,1.943.464Zm37.99-8.352a6.1,6.1,0,0,1-3.654,1.16c-2.436,0-3.886-1.45-3.886-4.118v-12.7h7.772v-6.96H32.393v-7.6H23.345v7.6H18.531v6.96h4.814V-10.73C23.345-3.306,27.637.464,35,.464a12.931,12.931,0,0,0,7.366-1.972Zm37.12-7.6c0-10.034-7.076-16.182-16.24-16.182-9.512,0-16.646,6.728-16.646,16.066,0,9.28,7.018,16.066,17.806,16.066,5.626,0,9.976-1.74,12.876-5.046L70.035-9.8A10.578,10.578,0,0,1,62.2-6.786c-4.756,0-8.062-2.378-8.932-6.264H76.879C76.937-13.8,77.053-14.79,77.053-15.486ZM60.871-24.824a7.415,7.415,0,0,1,7.656,6.5H53.157A7.387,7.387,0,0,1,60.871-24.824Zm30.856-2.262V-31.2H83.085V0h9.048V-14.732c0-5.974,3.306-8.7,8.294-8.7.7,0,1.276.058,2.03.116v-8.352C97.643-31.668,93.931-30.1,91.727-27.086Z" transform="translate(114 56)" fill="#fff"/>
  </g>
</svg>
